<svg width="350" height="100" viewBox="0 0 350 100" xmlns="http://www.w3.org/2000/svg">
<path d="M2.04163 90L12.775 2.4H22.1666L32.9583 90H25.4916L23.1583 68.76H11.8416L9.50829 90H2.04163ZM13.1833 56.52H21.8166L19.25 33C18.8222 29.08 18.4527 25.56 18.1416 22.44C17.8305 19.24 17.6166 16.92 17.5 15.48C17.3833 16.92 17.1694 19.24 16.8583 22.44C16.5861 25.56 16.2166 29.04 15.75 32.88L13.1833 56.52ZM40.9855 90V2.4H48.2772V76.08H66.3604V90H40.9855ZM74.3293 90V2.4H86.9876C89.8654 2.4 92.3543 3.52 94.4543 5.76C96.5932 8 98.2459 11.16 99.4126 15.24C100.579 19.32 101.163 24.16 101.163 29.76V62.52C101.163 68.04 100.579 72.88 99.4126 77.04C98.2459 81.12 96.5932 84.32 94.4543 86.64C92.3543 88.88 89.8654 90 86.9876 90H74.3293ZM81.6209 76.2H86.9876C89.0876 76.2 90.7598 75 92.0043 72.6C93.2487 70.12 93.8709 66.76 93.8709 62.52V29.76C93.8709 25.6 93.2487 22.32 92.0043 19.92C90.7598 17.44 89.0876 16.2 86.9876 16.2H81.6209V76.2ZM122.431 91.2C119.709 91.2 117.337 90.16 115.315 88.08C113.331 85.92 111.795 82.92 110.706 79.08C109.656 75.16 109.131 70.56 109.131 65.28V27.12C109.131 21.84 109.656 17.28 110.706 13.44C111.795 9.52 113.331 6.51999 115.315 4.43999C117.337 2.28 119.709 1.2 122.431 1.2C125.193 1.2 127.565 2.28 129.548 4.43999C131.531 6.51999 133.048 9.52 134.098 13.44C135.187 17.28 135.731 21.8 135.731 27V65.28C135.731 70.56 135.187 75.16 134.098 79.08C133.048 82.92 131.531 85.92 129.548 88.08C127.565 90.16 125.193 91.2 122.431 91.2ZM122.431 78C124.415 78 125.912 76.92 126.923 74.76C127.934 72.52 128.44 69.36 128.44 65.28V27.12C128.44 22.96 127.934 19.8 126.923 17.64C125.912 15.48 124.415 14.4 122.431 14.4C120.448 14.4 118.951 15.48 117.94 17.64C116.929 19.8 116.423 22.96 116.423 27.12V65.28C116.423 69.36 116.929 72.52 117.94 74.76C118.99 76.92 120.487 78 122.431 78ZM192.62 91.2C189.897 91.2 187.506 90.16 185.445 88.08C183.422 85.92 181.847 82.92 180.72 79.08C179.631 75.16 179.086 70.56 179.086 65.28V27.12C179.086 21.76 179.631 17.16 180.72 13.32C181.847 9.47999 183.422 6.51999 185.445 4.43999C187.506 2.28 189.897 1.2 192.62 1.2C195.381 1.2 197.753 2.28 199.736 4.43999C201.758 6.51999 203.333 9.47999 204.461 13.32C205.589 17.16 206.153 21.76 206.153 27.12H198.803C198.803 22.96 198.258 19.8 197.17 17.64C196.12 15.48 194.603 14.4 192.62 14.4C190.636 14.4 189.1 15.48 188.011 17.64C186.922 19.8 186.378 22.92 186.378 27V65.28C186.378 69.36 186.922 72.52 188.011 74.76C189.1 77 190.636 78.12 192.62 78.12C194.603 78.12 196.12 77 197.17 74.76C198.258 72.52 198.803 69.36 198.803 65.28V56.4H191.57V43.44H206.153V65.28C206.153 70.56 205.589 75.16 204.461 79.08C203.333 82.92 201.758 85.92 199.736 88.08C197.753 90.16 195.381 91.2 192.62 91.2ZM215.113 90V76.8H223.688V15.6H215.113V2.4H239.613V15.6H231.038V76.8H239.613V90H215.113ZM262.341 91.2C259.618 91.2 257.246 90.16 255.224 88.08C253.241 85.92 251.704 82.92 250.616 79.08C249.566 75.16 249.041 70.56 249.041 65.28V27.12C249.041 21.84 249.566 17.28 250.616 13.44C251.704 9.52 253.241 6.51999 255.224 4.43999C257.246 2.28 259.618 1.2 262.341 1.2C265.102 1.2 267.474 2.28 269.457 4.43999C271.441 6.51999 272.957 9.52 274.007 13.44C275.096 17.28 275.641 21.8 275.641 27V65.28C275.641 70.56 275.096 75.16 274.007 79.08C272.957 82.92 271.441 85.92 269.457 88.08C267.474 90.16 265.102 91.2 262.341 91.2ZM262.341 78C264.324 78 265.821 76.92 266.832 74.76C267.843 72.52 268.349 69.36 268.349 65.28V27.12C268.349 22.96 267.843 19.8 266.832 17.64C265.821 15.48 264.324 14.4 262.341 14.4C260.357 14.4 258.86 15.48 257.849 17.64C256.838 19.8 256.332 22.96 256.332 27.12V65.28C256.332 69.36 256.838 72.52 257.849 74.76C258.899 76.92 260.396 78 262.341 78ZM285.068 90V76.8H293.643V15.6H285.068V2.4H309.568V15.6H300.993V76.8H309.568V90H285.068ZM316.837 90L327.57 2.4H336.962L347.753 90H340.287L337.953 68.76H326.637L324.303 90H316.837ZM327.978 56.52H336.611L334.045 33C333.617 29.08 333.248 25.56 332.936 22.44C332.625 19.24 332.412 16.92 332.295 15.48C332.178 16.92 331.964 19.24 331.653 22.44C331.381 25.56 331.012 29.04 330.545 32.88L327.978 56.52Z"/>
</svg>
