<svg width="64" height="10" viewBox="0 0 64 10" xmlns="http://www.w3.org/2000/svg">
<path d="M3.648 9.12C3.064 9.12 2.552 9.012 2.112 8.796C1.672 8.572 1.328 8.264 1.08 7.872C0.84 7.472 0.72 7.008 0.72 6.48V2.76C0.72 2.224 0.84 1.76 1.08 1.368C1.328 0.975999 1.672 0.671999 2.112 0.456C2.552 0.232 3.064 0.12 3.648 0.12C4.24 0.12 4.752 0.232 5.184 0.456C5.624 0.671999 5.964 0.975999 6.204 1.368C6.452 1.76 6.576 2.224 6.576 2.76H4.776C4.776 2.408 4.676 2.14 4.476 1.956C4.284 1.772 4.008 1.68 3.648 1.68C3.288 1.68 3.008 1.772 2.808 1.956C2.616 2.14 2.52 2.408 2.52 2.76V6.48C2.52 6.824 2.616 7.092 2.808 7.284C3.008 7.468 3.288 7.56 3.648 7.56C4.008 7.56 4.284 7.468 4.476 7.284C4.676 7.092 4.776 6.824 4.776 6.48H6.576C6.576 7.008 6.452 7.472 6.204 7.872C5.964 8.264 5.624 8.572 5.184 8.796C4.752 9.012 4.24 9.12 3.648 9.12ZM7.98731 9V0.24H9.78731V3.6H11.8033V0.24H13.6033V9H11.8033V5.28H9.78731V9H7.98731ZM15.3506 9V7.44H17.0906V1.8H15.3506V0.24H20.6306V1.8H18.8906V7.44H20.6306V9H15.3506ZM32.3813 9.12C31.7653 9.12 31.2293 9.016 30.7733 8.808C30.3173 8.6 29.9653 8.308 29.7173 7.932C29.4693 7.556 29.3453 7.112 29.3453 6.6H31.1453C31.1453 6.896 31.2573 7.132 31.4813 7.308C31.7133 7.476 32.0253 7.56 32.4173 7.56C32.7933 7.56 33.0853 7.476 33.2933 7.308C33.5093 7.14 33.6173 6.908 33.6173 6.612C33.6173 6.356 33.5373 6.136 33.3773 5.952C33.2173 5.768 32.9933 5.644 32.7053 5.58L31.8173 5.376C31.0733 5.2 30.4933 4.876 30.0773 4.404C29.6693 3.924 29.4653 3.34 29.4653 2.652C29.4653 2.14 29.5813 1.696 29.8133 1.32C30.0533 0.936 30.3893 0.64 30.8213 0.431999C31.2533 0.224 31.7653 0.12 32.3573 0.12C33.2533 0.12 33.9613 0.344 34.4813 0.792C35.0093 1.232 35.2733 1.828 35.2733 2.58H33.4733C33.4733 2.3 33.3733 2.08 33.1733 1.92C32.9813 1.76 32.7013 1.68 32.3333 1.68C31.9893 1.68 31.7253 1.76 31.5413 1.92C31.3573 2.072 31.2653 2.292 31.2653 2.58C31.2653 2.836 31.3373 3.056 31.4813 3.24C31.6333 3.416 31.8453 3.536 32.1173 3.6L33.0533 3.816C33.8293 3.992 34.4173 4.312 34.8173 4.776C35.2173 5.232 35.4173 5.816 35.4173 6.528C35.4173 7.04 35.2893 7.492 35.0333 7.884C34.7853 8.276 34.4333 8.58 33.9773 8.796C33.5293 9.012 32.9973 9.12 32.3813 9.12ZM39.5766 9.12C38.9926 9.12 38.4846 9.012 38.0526 8.796C37.6206 8.572 37.2846 8.264 37.0446 7.872C36.8126 7.472 36.6966 7.008 36.6966 6.48V2.76C36.6966 2.232 36.8126 1.772 37.0446 1.38C37.2846 0.979999 37.6206 0.671999 38.0526 0.456C38.4846 0.232 38.9926 0.12 39.5766 0.12C40.1686 0.12 40.6766 0.232 41.1006 0.456C41.5326 0.671999 41.8646 0.979999 42.0966 1.38C42.3366 1.772 42.4566 2.232 42.4566 2.76V6.48C42.4566 7.008 42.3366 7.472 42.0966 7.872C41.8646 8.264 41.5326 8.572 41.1006 8.796C40.6766 9.012 40.1686 9.12 39.5766 9.12ZM39.5766 7.56C39.9366 7.56 40.2046 7.468 40.3806 7.284C40.5646 7.092 40.6566 6.824 40.6566 6.48V2.76C40.6566 2.408 40.5686 2.14 40.3926 1.956C40.2166 1.772 39.9446 1.68 39.5766 1.68C39.2086 1.68 38.9366 1.772 38.7606 1.956C38.5846 2.14 38.4966 2.408 38.4966 2.76V6.48C38.4966 6.824 38.5846 7.092 38.7606 7.284C38.9446 7.468 39.2166 7.56 39.5766 7.56ZM43.8919 9V0.24H45.9919L48.2599 7.02C48.2359 6.724 48.2079 6.384 48.1759 6C48.1439 5.608 48.1159 5.22 48.0919 4.836C48.0759 4.444 48.0679 4.112 48.0679 3.84V0.24H49.6519V9H47.5519L45.3079 2.22C45.3319 2.476 45.3559 2.78 45.3799 3.132C45.4039 3.484 45.4239 3.84 45.4399 4.2C45.4639 4.56 45.4759 4.88 45.4759 5.16V9H43.8919ZM53.9672 9.12C53.3832 9.12 52.8752 9.012 52.4432 8.796C52.0112 8.572 51.6752 8.264 51.4352 7.872C51.2032 7.472 51.0872 7.008 51.0872 6.48V2.76C51.0872 2.232 51.2032 1.772 51.4352 1.38C51.6752 0.979999 52.0112 0.671999 52.4432 0.456C52.8752 0.232 53.3832 0.12 53.9672 0.12C54.5592 0.12 55.0672 0.232 55.4912 0.456C55.9232 0.671999 56.2552 0.979999 56.4872 1.38C56.7272 1.772 56.8472 2.232 56.8472 2.76V6.48C56.8472 7.008 56.7272 7.472 56.4872 7.872C56.2552 8.264 55.9232 8.572 55.4912 8.796C55.0672 9.012 54.5592 9.12 53.9672 9.12ZM53.9672 7.56C54.3272 7.56 54.5952 7.468 54.7712 7.284C54.9552 7.092 55.0472 6.824 55.0472 6.48V2.76C55.0472 2.408 54.9592 2.14 54.7832 1.956C54.6072 1.772 54.3352 1.68 53.9672 1.68C53.5992 1.68 53.3272 1.772 53.1512 1.956C52.9752 2.14 52.8872 2.408 52.8872 2.76V6.48C52.8872 6.824 52.9752 7.092 53.1512 7.284C53.3352 7.468 53.6072 7.56 53.9672 7.56ZM59.7345 6.3L59.6745 3.72H60.8745C61.2025 3.72 61.4625 3.64 61.6545 3.48C61.8465 3.312 61.9425 3.092 61.9425 2.82C61.9425 2.54 61.8425 2.32 61.6425 2.16C61.4505 2 61.1905 1.92 60.8625 1.92H58.8825V0.24H60.7425C61.3585 0.24 61.8905 0.348 62.3385 0.564C62.7865 0.772 63.1305 1.068 63.3705 1.452C63.6185 1.836 63.7425 2.292 63.7425 2.82C63.7425 3.324 63.6385 3.764 63.4305 4.14C63.2225 4.516 62.9305 4.812 62.5545 5.028C62.1785 5.236 61.7385 5.34 61.2345 5.34V6.3H59.7345ZM60.3105 9.06C60.0385 9.06 59.8185 8.984 59.6505 8.832C59.4905 8.672 59.4105 8.468 59.4105 8.22C59.4105 7.964 59.4905 7.76 59.6505 7.608C59.8185 7.456 60.0385 7.38 60.3105 7.38H60.6705C60.9425 7.38 61.1585 7.456 61.3185 7.608C61.4865 7.76 61.5705 7.964 61.5705 8.22C61.5705 8.476 61.4865 8.68 61.3185 8.832C61.1585 8.984 60.9385 9.06 60.6585 9.06H60.3105Z"/>
</svg>
