<svg width="65" height="13" viewBox="0 0 65 13" xmlns="http://www.w3.org/2000/svg">
<path d="M3.648 12.12C3.064 12.12 2.552 12.012 2.112 11.796C1.672 11.572 1.328 11.264 1.08 10.872C0.84 10.472 0.72 10.008 0.72 9.48V5.76C0.72 5.224 0.84 4.76 1.08 4.368C1.328 3.976 1.672 3.672 2.112 3.456C2.552 3.232 3.064 3.12 3.648 3.12C4.24 3.12 4.752 3.232 5.184 3.456C5.624 3.672 5.964 3.976 6.204 4.368C6.452 4.76 6.576 5.224 6.576 5.76H4.776C4.776 5.408 4.676 5.14 4.476 4.956C4.284 4.772 4.008 4.68 3.648 4.68C3.288 4.68 3.008 4.772 2.808 4.956C2.616 5.14 2.52 5.408 2.52 5.76V9.48C2.52 9.824 2.616 10.092 2.808 10.284C3.008 10.468 3.288 10.56 3.648 10.56C4.008 10.56 4.284 10.468 4.476 10.284C4.676 10.092 4.776 9.824 4.776 9.48H6.576C6.576 10.008 6.452 10.472 6.204 10.872C5.964 11.264 5.624 11.572 5.184 11.796C4.752 12.012 4.24 12.12 3.648 12.12ZM10.7953 12.12C9.90731 12.12 9.20331 11.88 8.68331 11.4C8.17131 10.92 7.91531 10.264 7.91531 9.432V3.24H9.71531V9.42C9.71531 9.788 9.80731 10.072 9.99131 10.272C10.1833 10.464 10.4513 10.56 10.7953 10.56C11.1313 10.56 11.3953 10.464 11.5873 10.272C11.7793 10.072 11.8753 9.788 11.8753 9.42V3.24H13.6753V9.432C13.6753 10.256 13.4153 10.912 12.8953 11.4C12.3833 11.88 11.6833 12.12 10.7953 12.12ZM15.1706 12V3.24H17.9906C18.6146 3.24 19.1546 3.348 19.6106 3.564C20.0666 3.78 20.4186 4.088 20.6666 4.488C20.9226 4.888 21.0506 5.36 21.0506 5.904C21.0506 6.472 20.9106 6.98 20.6306 7.428C20.3586 7.876 19.9866 8.2 19.5146 8.4L21.1706 12H19.2146L17.7986 8.688H16.9586V12H15.1706ZM16.9586 7.128H17.9906C18.3906 7.128 18.6986 7.028 18.9146 6.828C19.1386 6.628 19.2506 6.348 19.2506 5.988C19.2506 5.612 19.1386 5.32 18.9146 5.112C18.6986 4.904 18.3906 4.8 17.9906 4.8H16.9586V7.128ZM22.5459 12V10.44H24.2859V4.8H22.5459V3.24H27.8259V4.8H26.0859V10.44H27.8259V12H22.5459ZM32.3813 12.12C31.7973 12.12 31.2893 12.012 30.8573 11.796C30.4253 11.572 30.0893 11.264 29.8493 10.872C29.6173 10.472 29.5013 10.008 29.5013 9.48V5.76C29.5013 5.232 29.6173 4.772 29.8493 4.38C30.0893 3.98 30.4253 3.672 30.8573 3.456C31.2893 3.232 31.7973 3.12 32.3813 3.12C32.9733 3.12 33.4813 3.232 33.9053 3.456C34.3373 3.672 34.6693 3.98 34.9013 4.38C35.1413 4.772 35.2613 5.232 35.2613 5.76V9.48C35.2613 10.008 35.1413 10.472 34.9013 10.872C34.6693 11.264 34.3373 11.572 33.9053 11.796C33.4813 12.012 32.9733 12.12 32.3813 12.12ZM32.3813 10.56C32.7413 10.56 33.0093 10.468 33.1853 10.284C33.3693 10.092 33.4613 9.824 33.4613 9.48V5.76C33.4613 5.408 33.3733 5.14 33.1973 4.956C33.0213 4.772 32.7493 4.68 32.3813 4.68C32.0133 4.68 31.7413 4.772 31.5653 4.956C31.3893 5.14 31.3013 5.408 31.3013 5.76V9.48C31.3013 9.824 31.3893 10.092 31.5653 10.284C31.7493 10.468 32.0213 10.56 32.3813 10.56ZM39.5766 12.12C38.9606 12.12 38.4246 12.016 37.9686 11.808C37.5126 11.6 37.1606 11.308 36.9126 10.932C36.6646 10.556 36.5406 10.112 36.5406 9.6H38.3406C38.3406 9.896 38.4526 10.132 38.6766 10.308C38.9086 10.476 39.2206 10.56 39.6126 10.56C39.9886 10.56 40.2806 10.476 40.4886 10.308C40.7046 10.14 40.8126 9.908 40.8126 9.612C40.8126 9.356 40.7326 9.136 40.5726 8.952C40.4126 8.768 40.1886 8.644 39.9006 8.58L39.0126 8.376C38.2686 8.2 37.6886 7.876 37.2726 7.404C36.8646 6.924 36.6606 6.34 36.6606 5.652C36.6606 5.14 36.7766 4.696 37.0086 4.32C37.2486 3.936 37.5846 3.64 38.0166 3.432C38.4486 3.224 38.9606 3.12 39.5526 3.12C40.4486 3.12 41.1566 3.344 41.6766 3.792C42.2046 4.232 42.4686 4.828 42.4686 5.58H40.6686C40.6686 5.3 40.5686 5.08 40.3686 4.92C40.1766 4.76 39.8966 4.68 39.5286 4.68C39.1846 4.68 38.9206 4.76 38.7366 4.92C38.5526 5.072 38.4606 5.292 38.4606 5.58C38.4606 5.836 38.5326 6.056 38.6766 6.24C38.8286 6.416 39.0406 6.536 39.3126 6.6L40.2486 6.816C41.0246 6.992 41.6126 7.312 42.0126 7.776C42.4126 8.232 42.6126 8.816 42.6126 9.528C42.6126 10.04 42.4846 10.492 42.2286 10.884C41.9806 11.276 41.6286 11.58 41.1726 11.796C40.7246 12.012 40.1926 12.12 39.5766 12.12ZM44.1319 12V10.44H45.8719V4.8H44.1319V3.24H49.4119V4.8H47.6719V10.44H49.4119V12H44.1319ZM53.0672 12V4.92H50.8472V3.24H57.0872V4.92H54.8672V12H53.0672ZM57.8625 12L60.0105 3.24H62.2905L64.4625 12H62.6265L62.2065 10.02H60.1185L59.6985 12H57.8625ZM60.4185 8.58H61.8945L61.4745 6.468C61.4185 6.164 61.3585 5.864 61.2945 5.568C61.2385 5.264 61.1945 5.028 61.1625 4.86C61.1305 5.028 61.0865 5.26 61.0305 5.556C60.9825 5.852 60.9265 6.152 60.8625 6.456L60.4185 8.58ZM60.4065 2.28L59.0025 0.599999H60.9825L62.2425 2.28H60.4065Z"/>
</svg>
