<svg width="72" height="10" viewBox="0 0 72 10" xmlns="http://www.w3.org/2000/svg">
<path d="M0.84 9V0.24H6.48V1.92H2.616V3.864H6.168V5.544H2.64V9H0.84ZM10.7953 9.12C10.2113 9.12 9.70331 9.012 9.27131 8.796C8.83931 8.572 8.50331 8.264 8.26331 7.872C8.03131 7.472 7.91531 7.008 7.91531 6.48V2.76C7.91531 2.232 8.03131 1.772 8.26331 1.38C8.50331 0.979999 8.83931 0.671999 9.27131 0.456C9.70331 0.232 10.2113 0.12 10.7953 0.12C11.3873 0.12 11.8953 0.232 12.3193 0.456C12.7513 0.671999 13.0833 0.979999 13.3153 1.38C13.5553 1.772 13.6753 2.232 13.6753 2.76V6.48C13.6753 7.008 13.5553 7.472 13.3153 7.872C13.0833 8.264 12.7513 8.572 12.3193 8.796C11.8953 9.012 11.3873 9.12 10.7953 9.12ZM10.7953 7.56C11.1553 7.56 11.4233 7.468 11.5993 7.284C11.7833 7.092 11.8753 6.824 11.8753 6.48V2.76C11.8753 2.408 11.7873 2.14 11.6113 1.956C11.4353 1.772 11.1633 1.68 10.7953 1.68C10.4273 1.68 10.1553 1.772 9.97931 1.956C9.80331 2.14 9.71531 2.408 9.71531 2.76V6.48C9.71531 6.824 9.80331 7.092 9.97931 7.284C10.1633 7.468 10.4353 7.56 10.7953 7.56ZM15.1706 9V0.24H17.9906C18.6146 0.24 19.1546 0.348 19.6106 0.564C20.0666 0.779999 20.4186 1.088 20.6666 1.488C20.9226 1.888 21.0506 2.36 21.0506 2.904C21.0506 3.472 20.9106 3.98 20.6306 4.428C20.3586 4.876 19.9866 5.2 19.5146 5.4L21.1706 9H19.2146L17.7986 5.688H16.9586V9H15.1706ZM16.9586 4.128H17.9906C18.3906 4.128 18.6986 4.028 18.9146 3.828C19.1386 3.628 19.2506 3.348 19.2506 2.988C19.2506 2.612 19.1386 2.32 18.9146 2.112C18.6986 1.904 18.3906 1.8 17.9906 1.8H16.9586V4.128ZM22.0899 9V0.24H24.1179L24.9219 3C25.0099 3.288 25.0739 3.54 25.1139 3.756C25.1619 3.972 25.1899 4.124 25.1979 4.212C25.2059 4.124 25.2299 3.972 25.2699 3.756C25.3179 3.54 25.3819 3.288 25.4619 3L26.2539 0.24H28.2819V9H26.6379V6.6C26.6379 6.16 26.6459 5.7 26.6619 5.22C26.6859 4.732 26.7139 4.248 26.7459 3.768C26.7779 3.288 26.8139 2.84 26.8539 2.424C26.8939 2 26.9299 1.632 26.9619 1.32L25.9539 5.28H24.4299L23.3739 1.32C23.4139 1.616 23.4539 1.972 23.4939 2.388C23.5339 2.796 23.5699 3.24 23.6019 3.72C23.6419 4.192 23.6739 4.676 23.6979 5.172C23.7219 5.668 23.7339 6.144 23.7339 6.6V9H22.0899ZM29.0813 9L31.2293 0.24H33.5093L35.6813 9H33.8453L33.4253 7.02H31.3373L30.9173 9H29.0813ZM31.6373 5.58H33.1133L32.6933 3.468C32.6373 3.164 32.5773 2.864 32.5133 2.568C32.4573 2.264 32.4133 2.028 32.3813 1.86C32.3493 2.028 32.3053 2.26 32.2493 2.556C32.2013 2.852 32.1453 3.152 32.0813 3.456L31.6373 5.58ZM36.8766 9V7.32L40.0926 1.92H36.9726V0.24H42.1446V1.92L38.9166 7.32H42.2766V9H36.8766ZM44.1319 9V7.44H45.8719V1.8H44.1319V0.24H49.4119V1.8H47.6719V7.44H49.4119V9H44.1319ZM53.9672 9.12C53.3832 9.12 52.8752 9.012 52.4432 8.796C52.0112 8.572 51.6752 8.264 51.4352 7.872C51.2032 7.472 51.0872 7.008 51.0872 6.48V2.76C51.0872 2.232 51.2032 1.772 51.4352 1.38C51.6752 0.979999 52.0112 0.671999 52.4432 0.456C52.8752 0.232 53.3832 0.12 53.9672 0.12C54.5592 0.12 55.0672 0.232 55.4912 0.456C55.9232 0.671999 56.2552 0.979999 56.4872 1.38C56.7272 1.772 56.8472 2.232 56.8472 2.76V6.48C56.8472 7.008 56.7272 7.472 56.4872 7.872C56.2552 8.264 55.9232 8.572 55.4912 8.796C55.0672 9.012 54.5592 9.12 53.9672 9.12ZM53.9672 7.56C54.3272 7.56 54.5952 7.468 54.7712 7.284C54.9552 7.092 55.0472 6.824 55.0472 6.48V2.76C55.0472 2.408 54.9592 2.14 54.7832 1.956C54.6072 1.772 54.3352 1.68 53.9672 1.68C53.5992 1.68 53.3272 1.772 53.1512 1.956C52.9752 2.14 52.8872 2.408 52.8872 2.76V6.48C52.8872 6.824 52.9752 7.092 53.1512 7.284C53.3352 7.468 53.6072 7.56 53.9672 7.56ZM58.2825 9V0.24H60.3825L62.6505 7.02C62.6265 6.724 62.5985 6.384 62.5665 6C62.5345 5.608 62.5065 5.22 62.4825 4.836C62.4665 4.444 62.4585 4.112 62.4585 3.84V0.24H64.0425V9H61.9425L59.6985 2.22C59.7225 2.476 59.7465 2.78 59.7705 3.132C59.7945 3.484 59.8145 3.84 59.8305 4.2C59.8545 4.56 59.8665 4.88 59.8665 5.16V9H58.2825ZM65.7178 9V0.24H71.1178V1.776H67.4818V3.744H70.6978V5.28H67.4818V7.464H71.1178V9H65.7178Z"/>
</svg>
